<svg xmlns="http://www.w3.org/2000/svg" version="1.1" xmlns:xlink="http://www.w3.org/1999/xlink" xmlns:svgjs="http://svgjs.com/svgjs" width="1440" height="720" preserveAspectRatio="none" viewBox="0 0 1440 720"><g mask="url(&quot;#SvgjsMask1074&quot;)" fill="none"><rect width="1440" height="720" x="0" y="0" fill="#0e2a47"></rect><path d="M91 720L811 0L1400.5 0L680.5 720z" fill="url(#SvgjsLinearGradient1075)"></path><path d="M568.2 720L1288.2 0L1732.2 0L1012.2 720z" fill="url(#SvgjsLinearGradient1075)"></path><path d="M1373 720L653 0L110 0L830 720z" fill="url(#SvgjsLinearGradient1076)"></path><path d="M880.8 720L160.79999999999995 0L-322.20000000000005 0L397.79999999999995 720z" fill="url(#SvgjsLinearGradient1076)"></path><path d="M1044.988659556097 720L1440 324.988659556097L1440 720z" fill="url(#SvgjsLinearGradient1075)"></path><path d="M0 720L395.011340443903 720L 0 324.988659556097z" fill="url(#SvgjsLinearGradient1076)"></path></g><defs><mask id="SvgjsMask1074"><rect width="1440" height="720" fill="#ffffff"></rect></mask><linearGradient x1="0%" y1="100%" x2="100%" y2="0%" id="SvgjsLinearGradient1075"><stop stop-color="rgba(15, 70, 185, 0.2)" offset="0"></stop><stop stop-opacity="0" stop-color="rgba(15, 70, 185, 0.2)" offset="0.66"></stop></linearGradient><linearGradient x1="100%" y1="100%" x2="0%" y2="0%" id="SvgjsLinearGradient1076"><stop stop-color="rgba(15, 70, 185, 0.2)" offset="0"></stop><stop stop-opacity="0" stop-color="rgba(15, 70, 185, 0.2)" offset="0.66"></stop></linearGradient></defs></svg>