<svg xmlns="http://www.w3.org/2000/svg" xmlns:svgjs="http://svgjs.com/svgjs" xmlns:xlink="http://www.w3.org/1999/xlink" width="1440" height="720" preserveAspectRatio="none" version="1.1" viewBox="0 0 1440 720"><g fill="none" mask="url(&quot;#SvgjsMask1074&quot;)"><rect width="1440" height="720" x="0" y="0" fill="#0e2a47"/><path fill="url(#SvgjsLinearGradient1075)" d="M91 720L811 0L1400.5 0L680.5 720z"/><path fill="url(#SvgjsLinearGradient1075)" d="M568.2 720L1288.2 0L1732.2 0L1012.2 720z"/><path fill="url(#SvgjsLinearGradient1076)" d="M1373 720L653 0L110 0L830 720z"/><path fill="url(#SvgjsLinearGradient1076)" d="M880.8 720L160.79999999999995 0L-322.20000000000005 0L397.79999999999995 720z"/><path fill="url(#SvgjsLinearGradient1075)" d="M1044.988659556097 720L1440 324.988659556097L1440 720z"/><path fill="url(#SvgjsLinearGradient1076)" d="M0 720L395.011340443903 720L 0 324.988659556097z"/></g><defs><mask id="SvgjsMask1074"><rect width="1440" height="720" fill="#fff"/></mask><linearGradient id="SvgjsLinearGradient1075" x1="0%" x2="100%" y1="100%" y2="0%"><stop offset="0" stop-color="rgba(15, 70, 185, 0.2)"/><stop offset=".66" stop-color="rgba(15, 70, 185, 0.2)" stop-opacity="0"/></linearGradient><linearGradient id="SvgjsLinearGradient1076" x1="100%" x2="0%" y1="100%" y2="0%"><stop offset="0" stop-color="rgba(15, 70, 185, 0.2)"/><stop offset=".66" stop-color="rgba(15, 70, 185, 0.2)" stop-opacity="0"/></linearGradient></defs></svg>