<svg xmlns="http://www.w3.org/2000/svg" xmlns:xlink="http://www.w3.org/1999/xlink" zoomAndPan="magnify" preserveAspectRatio="xMidYMid meet" version="1.0" viewBox="52.9 169.59 261.58 25.77">
    <defs>
        <g/>
    </defs>
    <g fill="#ff914d" fill-opacity="1">
        <g transform="translate(53.022909, 195.331247)">
            <g>
                <path d="M 20.40625 -21.949219 L 20.40625 -23.367188 L 22.074219 -23.367188 L 22.074219 -24.355469 C 22.074219 -25.308594 21.457031 -25.402344 21.210938 -25.402344 L 1.480469 -25.402344 C 1.234375 -25.402344 0.585938 -25.308594 0.585938 -24.355469 L 0.585938 -23.367188 L -0.125 -23.367188 L -0.125 -21.949219 C -0.125 -20.933594 0.523438 -20.839844 0.769531 -20.839844 L 8.695312 -20.839844 L 8.695312 -19.914062 L 10.417969 -19.914062 L 10.417969 -19.175781 L 8.695312 -19.175781 L 8.695312 -14.828125 L 9.402344 -14.828125 L 9.402344 -12.578125 L 6.96875 -12.578125 L 6.96875 -9.1875 L 9.402344 -9.1875 L 9.402344 -8.445312 L 8.695312 -8.445312 L 8.695312 -6.226562 L 9.402344 -6.226562 L 9.402344 -4.007812 L 6.78125 -4.007812 L 6.78125 -1.820312 L 10.417969 -1.820312 L 10.417969 -1.046875 C 10.417969 -0.09375 11.003906 0 11.28125 0 L 12.421875 0 C 12.671875 0 13.253906 -0.09375 13.253906 -1.046875 L 13.253906 -6.226562 L 12.207031 -6.226562 L 12.207031 -8.445312 L 13.253906 -8.445312 L 13.253906 -9.1875 L 14.210938 -9.1875 L 14.210938 -12.578125 L 13.253906 -12.578125 L 13.253906 -14.828125 L 12.207031 -14.828125 L 12.207031 -19.175781 L 19.144531 -19.175781 L 19.144531 -19.914062 L 11.589844 -19.914062 L 11.589844 -20.839844 L 19.515625 -20.839844 C 19.792969 -20.839844 20.40625 -20.933594 20.40625 -21.949219 Z M 20.40625 -21.949219 "/>
            </g>
        </g>
    </g>
    <g fill="#ff914d" fill-opacity="1">
        <g transform="translate(81.686693, 195.331247)">
            <g>
                <path d="M 21.269531 -1.046875 L 21.269531 -2.621094 L 19.484375 -2.621094 L 19.484375 -4.53125 L 21.269531 -4.53125 L 21.269531 -7.769531 L 20.992188 -7.769531 L 20.992188 -12.699219 L 21.269531 -12.699219 L 21.269531 -13.316406 L 19.945312 -13.316406 L 19.945312 -16.460938 L 21.269531 -16.460938 L 21.269531 -18.375 L 20.191406 -18.375 L 20.191406 -21.300781 L 19.574219 -21.300781 L 19.574219 -21.949219 L 21.269531 -21.949219 L 21.269531 -23.859375 L 20.40625 -23.859375 L 20.40625 -24.324219 C 20.40625 -25.277344 19.792969 -25.402344 19.542969 -25.402344 L 17.570312 -25.402344 C 17.292969 -25.402344 16.707031 -25.277344 16.707031 -24.324219 L 16.707031 -23.859375 L 18.402344 -23.859375 L 18.402344 -21.949219 L 16.707031 -21.949219 L 16.707031 -18.375 L 17.910156 -18.375 L 17.910156 -16.460938 L 16.707031 -16.460938 L 16.707031 -15.105469 L 3.730469 -15.105469 L 3.730469 -16.460938 L 5.023438 -16.460938 L 5.023438 -18.375 L 3.976562 -18.375 L 3.976562 -21.300781 L 3.328125 -21.300781 L 3.328125 -21.949219 L 5.023438 -21.949219 L 5.023438 -23.859375 L 4.191406 -23.859375 L 4.191406 -24.324219 C 4.191406 -25.277344 3.574219 -25.402344 3.328125 -25.402344 L 1.355469 -25.402344 C 1.078125 -25.402344 0.460938 -25.277344 0.460938 -24.324219 L 0.460938 -23.859375 L 2.1875 -23.859375 L 2.1875 -21.949219 L -1.542969 -21.949219 L -1.542969 -18.375 L 1.695312 -18.375 L 1.695312 -16.460938 L 0.460938 -16.460938 L 0.460938 -13.316406 L 7.246094 -13.316406 L 7.246094 -12.699219 L 0.460938 -12.699219 L 0.460938 -7.769531 L 1.449219 -7.769531 L 1.449219 -5.855469 L 0.460938 -5.855469 L 0.460938 -2.621094 L 0.988281 -2.621094 L 0.988281 -1.046875 C 0.988281 -0.09375 1.601562 0.03125 1.851562 0.03125 L 4.160156 0.03125 C 4.4375 0.03125 5.023438 -0.09375 5.023438 -1.046875 L 5.023438 -2.621094 L 3.269531 -2.621094 L 3.269531 -4.53125 L 5.023438 -4.53125 L 5.023438 -7.769531 L 3.730469 -7.769531 L 3.730469 -10.542969 L 16.707031 -10.542969 L 16.707031 -7.769531 L 17.695312 -7.769531 L 17.695312 -5.855469 L 14.304688 -5.855469 L 14.304688 -2.621094 L 17.203125 -2.621094 L 17.203125 -1.046875 C 17.203125 -0.09375 17.816406 0.03125 18.066406 0.03125 L 20.378906 0.03125 C 20.65625 0.03125 21.269531 -0.09375 21.269531 -1.046875 Z M 21.269531 -1.046875 "/>
            </g>
        </g>
    </g>
    <g fill="#ff914d" fill-opacity="1">
        <g transform="translate(108.963528, 195.331247)">
            <g>
                <path d="M 19.914062 -2.375 L 18.835938 -2.375 L 18.835938 -4.410156 C 18.835938 -4.871094 18.679688 -5.117188 18.496094 -5.273438 L 19.667969 -5.273438 C 19.574219 -5.394531 19.453125 -5.457031 19.328125 -5.488281 L 9.773438 -5.488281 C 9.496094 -5.488281 9.21875 -5.488281 8.972656 -5.519531 L 8.199219 -5.519531 C 7.554688 -5.519531 6.996094 -5.609375 6.597656 -5.734375 C 6.195312 -5.886719 5.886719 -6.105469 5.640625 -6.414062 C 5.519531 -6.628906 5.394531 -6.875 5.300781 -7.183594 L 4.378906 -7.183594 C 4.316406 -7.335938 4.253906 -7.554688 4.222656 -7.738281 L 4.160156 -8.292969 C 4.160156 -8.292969 4.191406 -9.679688 4.191406 -10.265625 L 5.117188 -10.265625 L 5.117188 -10.542969 L 18.898438 -10.542969 C 19.082031 -10.542969 19.390625 -10.605469 19.574219 -10.882812 L 18.679688 -10.882812 C 18.773438 -11.035156 18.835938 -11.253906 18.835938 -11.558594 L 18.835938 -13.996094 C 18.835938 -14.953125 18.21875 -15.074219 17.972656 -15.074219 L 2.683594 -15.042969 C 1.941406 -14.890625 1.292969 -14.457031 0.894531 -13.78125 C 0.738281 -13.535156 0.648438 -13.285156 0.585938 -13.007812 L 0.554688 -10.882812 L 1.480469 -10.882812 L 1.480469 -10.265625 L -0.925781 -10.265625 L -0.957031 -9.125 L -0.925781 -8.972656 C -0.925781 -8.324219 -0.863281 -7.738281 -0.832031 -7.183594 L 2.21875 -7.183594 C 2.28125 -6.472656 2.375 -5.855469 2.496094 -5.273438 L 0.925781 -5.273438 C 1.171875 -4.101562 1.601562 -3.144531 2.15625 -2.375 L 3.574219 -2.375 C 3.605469 -2.34375 3.636719 -2.25 3.699219 -2.1875 L 4.101562 -1.757812 L 2.683594 -1.757812 C 3.238281 -1.234375 3.882812 -0.800781 4.625 -0.554688 C 5.578125 -0.183594 6.75 -0.03125 8.109375 -0.03125 L 18.28125 -0.03125 C 18.558594 -0.125 18.867188 -0.371094 18.867188 -1.046875 L 18.867188 -1.757812 L 19.914062 -1.757812 Z M -0.648438 -24.355469 L -0.648438 -24.261719 L 1.265625 -24.261719 L 1.265625 -23.644531 L -0.648438 -23.644531 L -0.648438 -21.949219 C -0.648438 -21.886719 -0.648438 -21.796875 -0.617188 -21.734375 L -0.246094 -21.734375 C -0.152344 -20.992188 0.371094 -20.902344 0.617188 -20.902344 L 17.941406 -20.871094 C 18.15625 -20.871094 18.679688 -20.992188 18.773438 -21.734375 L 17.234375 -21.734375 C 17.234375 -21.796875 17.261719 -21.855469 17.261719 -21.949219 L 17.261719 -23.644531 L 18.773438 -23.644531 L 18.773438 -24.261719 L 17.261719 -24.261719 L 17.261719 -24.382812 C 17.261719 -25.339844 16.648438 -25.464844 16.398438 -25.464844 L 0.214844 -25.464844 C -0.0625 -25.464844 -0.648438 -25.339844 -0.648438 -24.355469 Z M -0.648438 -24.355469 "/>
            </g>
        </g>
    </g>
    <g fill="#ff914d" fill-opacity="1">
        <g transform="translate(134.853399, 195.331247)">
            <g/>
        </g>
    </g>
    <g fill="#ff914d" fill-opacity="1">
        <g transform="translate(152.236596, 195.331247)">
            <g>
                <path d="M -1.292969 -24.292969 L -1.292969 -24.230469 L 0.617188 -24.230469 L 0.617188 -23.582031 L -1.292969 -23.582031 L -1.292969 -21.917969 C -1.292969 -21.824219 -1.292969 -21.765625 -1.265625 -21.703125 L -0.894531 -21.703125 C -0.800781 -20.933594 -0.277344 -20.839844 -0.03125 -20.839844 L 17.292969 -20.839844 C 17.511719 -20.839844 18.035156 -20.933594 18.125 -21.703125 L 16.585938 -21.703125 C 16.585938 -21.765625 16.617188 -21.824219 16.617188 -21.886719 L 16.617188 -23.582031 L 18.125 -23.582031 L 18.125 -24.230469 L 16.617188 -24.230469 L 16.617188 -24.324219 C 16.617188 -25.308594 16 -25.402344 15.753906 -25.402344 L -0.429688 -25.402344 C -0.710938 -25.402344 -1.292969 -25.277344 -1.292969 -24.292969 Z M 18.742188 -11.558594 L 18.742188 -12.453125 L 17.941406 -12.453125 L 17.941406 -13.101562 L 18.742188 -13.101562 L 18.742188 -13.996094 C 18.742188 -14.921875 18.1875 -15.042969 17.910156 -15.074219 L 2.898438 -15.042969 C 2.003906 -14.980469 1.234375 -14.488281 0.769531 -13.75 C 0.648438 -13.535156 0.554688 -13.316406 0.492188 -13.101562 L -0.402344 -13.101562 C -0.402344 -13.039062 -0.429688 -13.007812 -0.429688 -12.949219 L -0.429688 -12.453125 L 1.789062 -12.453125 L 1.789062 -9.308594 L 2.710938 -9.308594 L 2.683594 -7.398438 L -0.460938 -7.398438 L -0.492188 -4.46875 L 0.832031 -4.46875 L 0.832031 -3.824219 L -1.449219 -3.824219 L -1.480469 -1.910156 L 1.140625 -1.910156 L 1.140625 -1.046875 C 1.140625 -0.09375 1.757812 0.03125 2.003906 0.03125 L 3.207031 0.03125 C 3.453125 0.03125 4.070312 -0.09375 4.070312 -1.046875 C 4.070312 -1.046875 4.070312 -1.355469 4.070312 -1.910156 L 3.605469 -1.910156 C 3.605469 -2.40625 3.605469 -3.082031 3.605469 -3.824219 L 4.070312 -3.824219 C 4.070312 -4.039062 4.070312 -4.253906 4.070312 -4.46875 L 2.773438 -4.46875 C 2.773438 -5.425781 2.773438 -6.441406 2.773438 -7.398438 L 4.070312 -7.398438 C 4.101562 -9.09375 4.101562 -10.511719 4.101562 -10.511719 L 17.910156 -10.511719 C 18.15625 -10.511719 18.742188 -10.605469 18.742188 -11.558594 Z M 18.742188 -11.558594 "/>
            </g>
        </g>
    </g>
    <g fill="#ff914d" fill-opacity="1">
        <g transform="translate(178.126467, 195.331247)">
            <g>
                <path d="M 18.710938 -1.046875 L 18.710938 -3.484375 C 18.710938 -4.4375 18.097656 -4.5625 17.847656 -4.5625 L 7.832031 -4.5625 C 7.183594 -4.5625 6.628906 -4.625 6.226562 -4.777344 L 5.640625 -4.777344 C 5.242188 -4.902344 4.964844 -5.148438 4.714844 -5.457031 C 4.5 -5.796875 4.316406 -6.257812 4.222656 -6.8125 C 4.222656 -6.8125 4.222656 -6.8125 4.222656 -6.84375 L 4.808594 -6.84375 C 4.6875 -7.429688 4.625 -8.199219 4.625 -9.125 L 4.625 -16.675781 L 16.308594 -16.675781 L 16.308594 -17.570312 L 4.625 -17.570312 L 4.625 -23.644531 L 3.914062 -23.644531 L 3.914062 -24.324219 C 3.914062 -25.308594 3.328125 -25.402344 3.050781 -25.402344 L 0.957031 -25.402344 C 0.679688 -25.402344 0.0625 -25.308594 0.0625 -24.324219 L 0.0625 -23.644531 L 0.957031 -23.644531 L 0.957031 -21.609375 L -1.601562 -21.609375 L -1.601562 -19.542969 L 0.585938 -19.542969 L 0.585938 -18.15625 L 0.0625 -18.15625 L 0.0625 -16.09375 L 0.925781 -16.09375 L 0.925781 -10.851562 L -0.523438 -10.851562 L -0.523438 -10.171875 L 0.863281 -10.171875 L 0.863281 -9.648438 C 0.863281 -8.601562 0.894531 -7.675781 1.015625 -6.84375 L -2.21875 -6.84375 C -2.15625 -6.257812 -2.066406 -5.703125 -1.972656 -5.242188 C -1.941406 -5.054688 -1.878906 -4.933594 -1.851562 -4.777344 L 1.570312 -4.777344 C 1.851562 -3.761719 2.25 -2.867188 2.773438 -2.21875 C 2.929688 -2.003906 3.113281 -1.820312 3.296875 -1.632812 L 2.3125 -1.632812 C 2.589844 -1.386719 2.898438 -1.171875 3.238281 -0.957031 L 4.933594 -0.957031 C 5.242188 -0.769531 5.550781 -0.617188 5.917969 -0.492188 C 6.84375 -0.152344 8.015625 0.03125 9.371094 0.03125 L 17.847656 0.03125 C 18.097656 0.03125 18.710938 -0.09375 18.710938 -1.046875 Z M 18.710938 -1.046875 "/>
            </g>
        </g>
    </g>
    <g fill="#ff914d" fill-opacity="1">
        <g transform="translate(203.245803, 195.331247)">
            <g>
                <path d="M 22.964844 -0.429688 C 22.964844 -0.429688 22.964844 -0.492188 22.964844 -0.523438 L 24.015625 -0.523438 C 24.046875 -0.710938 24.046875 -0.894531 23.953125 -1.140625 L 22.964844 -1.140625 C 22.964844 -1.171875 22.964844 -1.171875 22.964844 -1.171875 L 22.195312 -3.082031 L 23.183594 -3.082031 L 21.519531 -7.183594 L 19.851562 -7.183594 L 19.082031 -9.125 L 20.714844 -9.125 L 20.191406 -10.417969 L 18.464844 -14.675781 L 17.632812 -14.675781 L 16.371094 -17.789062 L 17.203125 -17.789062 L 16.429688 -19.730469 L 14.796875 -19.730469 L 13.6875 -22.535156 C 13.65625 -22.566406 13.625 -22.597656 13.625 -22.660156 L 12.300781 -22.660156 C 12.238281 -22.78125 12.175781 -22.90625 12.144531 -22.996094 C 12.113281 -23.089844 12.054688 -23.183594 12.023438 -23.304688 L 14.953125 -23.304688 C 14.644531 -24.105469 14.058594 -24.785156 13.316406 -25.21875 C 13.226562 -25.277344 13.070312 -25.339844 12.949219 -25.402344 C 12.917969 -25.433594 12.886719 -25.433594 12.824219 -25.464844 C 12.730469 -25.496094 12.609375 -25.554688 12.484375 -25.585938 C 12.394531 -25.617188 12.332031 -25.617188 12.238281 -25.648438 C 12.144531 -25.648438 12.054688 -25.679688 11.960938 -25.710938 C 11.808594 -25.742188 11.589844 -25.742188 11.40625 -25.742188 C 11.253906 -25.742188 11.066406 -25.742188 10.882812 -25.710938 C 10.757812 -25.679688 10.636719 -25.648438 10.542969 -25.617188 C 10.480469 -25.617188 10.449219 -25.617188 10.390625 -25.585938 C 10.234375 -25.554688 10.082031 -25.496094 9.957031 -25.433594 C 9.957031 -25.433594 9.925781 -25.433594 9.925781 -25.433594 C 9.773438 -25.371094 9.648438 -25.308594 9.496094 -25.21875 L 10.390625 -25.21875 C 10.328125 -25.1875 10.265625 -25.125 10.203125 -25.09375 C 10.019531 -25 9.863281 -24.878906 9.742188 -24.785156 C 9.402344 -24.476562 9.0625 -23.984375 8.722656 -23.304688 L 7.800781 -23.304688 C 7.707031 -23.058594 7.582031 -22.8125 7.460938 -22.535156 L 6.351562 -19.730469 L 6.996094 -19.730469 L 6.226562 -17.789062 L 5.578125 -17.789062 L 4.316406 -14.675781 L 5.734375 -14.675781 L 5.488281 -14.027344 L 4.039062 -14.027344 L 2.066406 -9.125 L 1.292969 -7.183594 L 2.097656 -7.183594 L 0.429688 -3.082031 L -0.339844 -3.082031 L -1.109375 -1.171875 C -1.109375 -1.171875 -1.109375 -1.171875 -1.109375 -1.140625 L 0.277344 -1.140625 C 0.183594 -0.894531 0.152344 -0.710938 0.183594 -0.523438 L -1.203125 -0.523438 C -1.203125 -0.492188 -1.203125 -0.460938 -1.203125 -0.429688 C -1.140625 -0.246094 -0.988281 0.03125 -0.492188 0.03125 L 1.820312 0.03125 C 2.1875 0.03125 2.464844 -0.183594 2.652344 -0.523438 L 3.699219 -0.523438 C 3.730469 -0.554688 3.730469 -0.585938 3.761719 -0.617188 L 3.976562 -1.140625 L 2.992188 -1.140625 L 3.730469 -3.082031 L 4.714844 -3.082031 L 5.488281 -5.023438 L 12.269531 -5.023438 C 12.578125 -5.023438 12.886719 -5.179688 13.070312 -5.457031 C 13.253906 -5.703125 13.285156 -6.042969 13.164062 -6.351562 L 12.824219 -7.183594 L 11.191406 -7.183594 L 10.417969 -9.09375 C 10.417969 -9.09375 10.417969 -9.125 10.417969 -9.125 L 12.054688 -9.125 C 11.992188 -9.308594 11.867188 -9.433594 11.714844 -9.554688 C 11.683594 -9.554688 11.683594 -9.554688 11.683594 -9.554688 C 11.589844 -9.617188 11.53125 -9.648438 11.4375 -9.679688 C 11.375 -9.679688 11.253906 -9.710938 11.160156 -9.710938 L 7.367188 -9.710938 L 9.0625 -14.027344 L 9.308594 -14.675781 L 8.476562 -14.675781 L 9.710938 -17.789062 L 10.542969 -17.789062 L 11.3125 -19.699219 C 11.34375 -19.761719 11.34375 -19.792969 11.34375 -19.792969 L 11.46875 -19.792969 C 11.46875 -19.792969 11.5 -19.792969 11.53125 -19.730469 L 11.746094 -19.144531 L 11.992188 -19.699219 C 11.992188 -19.730469 11.992188 -19.730469 11.992188 -19.730469 L 12.175781 -19.730469 L 12.949219 -17.789062 L 12.300781 -17.789062 L 13.535156 -14.675781 L 14.980469 -14.675781 L 15.230469 -14.027344 L 13.8125 -14.027344 L 16.554688 -7.183594 L 17.324219 -7.183594 L 18.988281 -3.082031 L 18.1875 -3.082031 L 18.957031 -1.140625 L 20.378906 -1.140625 L 20.59375 -0.648438 C 20.59375 -0.585938 20.625 -0.554688 20.625 -0.523438 L 19.238281 -0.523438 C 19.390625 -0.183594 19.667969 0.03125 20.039062 0.03125 L 22.320312 0.03125 C 22.78125 0.03125 22.9375 -0.277344 22.964844 -0.429688 Z M 22.964844 -0.429688 "/>
            </g>
        </g>
    </g>
    <g fill="#ff914d" fill-opacity="1">
        <g transform="translate(235.053359, 195.331247)">
            <g>
                <path d="M 28.082031 -1.046875 L 28.082031 -1.449219 L 28.667969 -1.449219 L 28.667969 -3.484375 L 27.40625 -3.484375 L 27.40625 -4.191406 L 28.667969 -4.191406 L 28.667969 -13.378906 L 27.777344 -13.378906 L 27.777344 -18.621094 L 28.667969 -18.621094 L 28.667969 -20.683594 L 27.128906 -20.683594 L 27.128906 -21.425781 C 27.128906 -21.671875 27.097656 -21.886719 27.097656 -22.101562 L 28.640625 -22.101562 C 28.609375 -22.964844 28.484375 -23.644531 28.300781 -24.136719 L 27.035156 -24.136719 C 27.003906 -24.230469 26.941406 -24.324219 26.914062 -24.414062 C 26.542969 -25.0625 25.832031 -25.402344 24.816406 -25.402344 L 23.273438 -25.402344 C 22.875 -25.402344 22.535156 -25.371094 22.226562 -25.277344 C 21.917969 -25.1875 21.640625 -25.03125 21.394531 -24.816406 C 21.210938 -24.632812 21.054688 -24.414062 20.902344 -24.136719 L 21.734375 -24.136719 C 21.703125 -24.078125 21.640625 -23.984375 21.609375 -23.921875 C 21.425781 -23.550781 21.238281 -23.089844 21.085938 -22.503906 L 20.902344 -22.101562 L 15.136719 -22.101562 L 14.582031 -20.683594 L 20.378906 -20.683594 L 19.542969 -18.621094 L 15.597656 -18.621094 L 13.503906 -13.378906 L 17.941406 -13.378906 L 17.664062 -12.699219 L 17.355469 -12.699219 L 16.03125 -9.371094 L 15.136719 -9.371094 L 15.074219 -9.554688 L 14.796875 -8.878906 C 14.765625 -8.753906 14.734375 -8.753906 14.703125 -8.753906 L 14.394531 -8.753906 C 14.367188 -8.753906 14.335938 -8.753906 14.304688 -8.878906 L 12.484375 -13.378906 L 11.621094 -13.378906 L 9.527344 -18.621094 L 10.390625 -18.621094 L 9.585938 -20.683594 L 8.046875 -20.683594 L 7.460938 -22.101562 L 9.03125 -22.101562 L 8.847656 -22.503906 C 8.695312 -23.089844 8.507812 -23.550781 8.324219 -23.921875 C 8.292969 -23.984375 8.230469 -24.078125 8.199219 -24.136719 L 6.9375 -24.136719 C 6.78125 -24.414062 6.628906 -24.632812 6.441406 -24.816406 C 6.226562 -25.03125 5.917969 -25.1875 5.609375 -25.277344 C 5.300781 -25.371094 4.933594 -25.402344 4.53125 -25.402344 L 2.929688 -25.402344 C 1.910156 -25.402344 1.203125 -25.0625 0.832031 -24.414062 C 0.800781 -24.324219 0.738281 -24.230469 0.710938 -24.136719 L 1.542969 -24.136719 C 1.324219 -23.644531 1.234375 -22.964844 1.171875 -22.101562 L -1.234375 -22.101562 C -1.234375 -21.886719 -1.234375 -21.671875 -1.234375 -21.425781 L -1.234375 -20.683594 L 1.171875 -20.683594 L 1.171875 -18.621094 L 0.339844 -18.621094 L 0.339844 -13.378906 L 1.664062 -13.378906 L 1.664062 -12.699219 L 0.339844 -12.699219 L 0.339844 -1.449219 L 1.664062 -1.449219 L 1.664062 -1.046875 C 1.664062 -0.09375 2.28125 0.03125 2.527344 0.03125 L 3.882812 0.03125 C 4.132812 0.03125 4.746094 -0.09375 4.746094 -1.046875 L 4.746094 -7.304688 L 3.390625 -7.304688 L 3.390625 -9.371094 L 4.746094 -9.371094 L 4.746094 -13.378906 L 3.851562 -13.378906 L 3.851562 -18.621094 L 4.46875 -18.621094 L 4.746094 -17.941406 L 4.746094 -19.574219 C 4.746094 -19.605469 4.746094 -19.636719 4.746094 -19.636719 L 4.902344 -19.636719 C 4.933594 -19.636719 4.933594 -19.636719 4.964844 -19.542969 L 7.460938 -13.378906 L 8.785156 -13.378906 L 9.0625 -12.699219 L 8.785156 -12.699219 L 10.140625 -9.371094 L 5.054688 -9.371094 L 5.886719 -7.304688 L 10.851562 -7.304688 L 11.160156 -6.503906 C 11.375 -5.855469 11.589844 -5.300781 11.835938 -4.839844 C 11.960938 -4.59375 12.085938 -4.378906 12.207031 -4.191406 L 12.269531 -4.191406 C 12.394531 -4.007812 12.515625 -3.851562 12.640625 -3.699219 C 12.699219 -3.636719 12.761719 -3.574219 12.824219 -3.484375 L 11.867188 -3.484375 C 12.085938 -3.296875 12.363281 -3.113281 12.640625 -3.019531 C 12.976562 -2.898438 13.410156 -2.835938 13.871094 -2.835938 C 14.335938 -2.835938 14.734375 -2.898438 15.105469 -3.019531 C 15.382812 -3.113281 15.628906 -3.296875 15.875 -3.484375 L 17.140625 -3.484375 C 17.203125 -3.574219 17.261719 -3.636719 17.324219 -3.699219 C 17.601562 -4.007812 17.847656 -4.378906 18.097656 -4.839844 C 18.3125 -5.300781 18.527344 -5.855469 18.742188 -6.503906 L 19.082031 -7.304688 L 18.25 -7.304688 L 19.082031 -9.371094 L 21.269531 -9.371094 L 22.90625 -13.378906 L 20.65625 -13.378906 L 22.78125 -18.621094 L 23.367188 -18.621094 L 23.367188 -17.972656 L 24.015625 -19.574219 C 24.046875 -19.636719 24.046875 -19.636719 24.105469 -19.636719 L 24.261719 -19.636719 C 24.261719 -19.636719 24.261719 -19.605469 24.261719 -19.574219 L 24.261719 -13.378906 L 25.585938 -13.378906 L 25.585938 -12.699219 L 25.277344 -12.699219 L 25.277344 -9.371094 L 24.261719 -9.371094 L 24.261719 -7.304688 L 25.277344 -7.304688 L 25.277344 -4.191406 L 24.261719 -4.191406 L 24.261719 -3.484375 L 24.816406 -3.484375 L 24.816406 -1.449219 L 24.261719 -1.449219 L 24.261719 -1.046875 C 24.261719 -0.09375 24.847656 0.03125 25.125 0.03125 L 27.21875 0.03125 C 27.46875 0.03125 28.082031 -0.09375 28.082031 -1.046875 Z M 28.082031 -1.046875 "/>
            </g>
        </g>
    </g>
    <g fill="#ff914d" fill-opacity="1">
        <g transform="translate(269.850581, 195.331247)">
            <g>
                <path d="M 19.914062 -2.375 L 18.835938 -2.375 L 18.835938 -4.410156 C 18.835938 -4.871094 18.679688 -5.117188 18.496094 -5.273438 L 19.667969 -5.273438 C 19.574219 -5.394531 19.453125 -5.457031 19.328125 -5.488281 L 9.773438 -5.488281 C 9.496094 -5.488281 9.21875 -5.488281 8.972656 -5.519531 L 8.199219 -5.519531 C 7.554688 -5.519531 6.996094 -5.609375 6.597656 -5.734375 C 6.195312 -5.886719 5.886719 -6.105469 5.640625 -6.414062 C 5.519531 -6.628906 5.394531 -6.875 5.300781 -7.183594 L 4.378906 -7.183594 C 4.316406 -7.335938 4.253906 -7.554688 4.222656 -7.738281 L 4.160156 -8.292969 C 4.160156 -8.292969 4.191406 -9.679688 4.191406 -10.265625 L 5.117188 -10.265625 L 5.117188 -10.542969 L 18.898438 -10.542969 C 19.082031 -10.542969 19.390625 -10.605469 19.574219 -10.882812 L 18.679688 -10.882812 C 18.773438 -11.035156 18.835938 -11.253906 18.835938 -11.558594 L 18.835938 -13.996094 C 18.835938 -14.953125 18.21875 -15.074219 17.972656 -15.074219 L 2.683594 -15.042969 C 1.941406 -14.890625 1.292969 -14.457031 0.894531 -13.78125 C 0.738281 -13.535156 0.648438 -13.285156 0.585938 -13.007812 L 0.554688 -10.882812 L 1.480469 -10.882812 L 1.480469 -10.265625 L -0.925781 -10.265625 L -0.957031 -9.125 L -0.925781 -8.972656 C -0.925781 -8.324219 -0.863281 -7.738281 -0.832031 -7.183594 L 2.21875 -7.183594 C 2.28125 -6.472656 2.375 -5.855469 2.496094 -5.273438 L 0.925781 -5.273438 C 1.171875 -4.101562 1.601562 -3.144531 2.15625 -2.375 L 3.574219 -2.375 C 3.605469 -2.34375 3.636719 -2.25 3.699219 -2.1875 L 4.101562 -1.757812 L 2.683594 -1.757812 C 3.238281 -1.234375 3.882812 -0.800781 4.625 -0.554688 C 5.578125 -0.183594 6.75 -0.03125 8.109375 -0.03125 L 18.28125 -0.03125 C 18.558594 -0.125 18.867188 -0.371094 18.867188 -1.046875 L 18.867188 -1.757812 L 19.914062 -1.757812 Z M -0.648438 -24.355469 L -0.648438 -24.261719 L 1.265625 -24.261719 L 1.265625 -23.644531 L -0.648438 -23.644531 L -0.648438 -21.949219 C -0.648438 -21.886719 -0.648438 -21.796875 -0.617188 -21.734375 L -0.246094 -21.734375 C -0.152344 -20.992188 0.371094 -20.902344 0.617188 -20.902344 L 17.941406 -20.871094 C 18.15625 -20.871094 18.679688 -20.992188 18.773438 -21.734375 L 17.234375 -21.734375 C 17.234375 -21.796875 17.261719 -21.855469 17.261719 -21.949219 L 17.261719 -23.644531 L 18.773438 -23.644531 L 18.773438 -24.261719 L 17.261719 -24.261719 L 17.261719 -24.382812 C 17.261719 -25.339844 16.648438 -25.464844 16.398438 -25.464844 L 0.214844 -25.464844 C -0.0625 -25.464844 -0.648438 -25.339844 -0.648438 -24.355469 Z M -0.648438 -24.355469 "/>
            </g>
        </g>
    </g>
    <g fill="#ff914d" fill-opacity="1">
        <g transform="translate(295.740466, 195.331247)">
            <g>
                <path d="M 17.261719 -1.324219 L 14.550781 -1.324219 C 14.644531 -1.449219 14.765625 -1.570312 14.859375 -1.726562 C 15.351562 -2.433594 15.691406 -3.296875 15.875 -4.285156 L 18.589844 -4.285156 C 18.652344 -4.53125 18.679688 -4.777344 18.710938 -5.023438 L 17.816406 -5.023438 C 17.847656 -5.363281 17.878906 -5.703125 17.878906 -6.074219 L 17.878906 -8.664062 L 18.742188 -8.664062 L 18.742188 -8.785156 C 18.742188 -9.554688 18.679688 -10.234375 18.589844 -10.882812 L 16.523438 -10.882812 C 16.339844 -11.929688 15.96875 -12.792969 15.476562 -13.472656 C 15.257812 -13.78125 14.980469 -14.058594 14.703125 -14.273438 L 16.769531 -14.273438 C 16.308594 -14.644531 15.785156 -14.890625 15.167969 -15.011719 L 13.65625 -15.011719 C 13.253906 -15.105469 12.824219 -15.167969 12.363281 -15.167969 L 3.113281 -15.167969 C 2.683594 -15.167969 2.066406 -15.351562 2.066406 -16.863281 L 2.066406 -17.234375 L 8.167969 -17.234375 L 8.167969 -19.144531 C 8.167969 -19.238281 8.167969 -19.359375 8.199219 -19.453125 C 8.199219 -19.453125 8.199219 -19.484375 8.199219 -19.484375 L 2.3125 -19.484375 C 2.34375 -19.882812 2.433594 -20.191406 2.558594 -20.4375 C 2.652344 -20.625 2.867188 -20.839844 3.390625 -20.839844 L 15.9375 -20.839844 C 16.152344 -20.839844 16.675781 -20.933594 16.769531 -21.640625 L 18.066406 -21.640625 C 18.066406 -21.734375 18.066406 -21.796875 18.066406 -21.886719 L 18.066406 -23.859375 L 15.96875 -23.859375 L 15.96875 -24.355469 C 15.96875 -25.308594 15.351562 -25.402344 15.105469 -25.402344 L 3.914062 -25.402344 C 2.34375 -25.402344 1.140625 -24.878906 0.339844 -23.859375 L 1.941406 -23.859375 C 1.910156 -23.800781 1.851562 -23.769531 1.820312 -23.707031 C 1.386719 -23.121094 1.109375 -22.410156 0.894531 -21.640625 L -1.695312 -21.640625 C -1.878906 -20.992188 -1.972656 -20.253906 -1.972656 -19.484375 C -1.972656 -19.453125 -1.972656 -19.453125 -1.972656 -19.453125 L -0.460938 -19.453125 C -0.460938 -19.421875 -0.460938 -19.390625 -0.460938 -19.328125 L -0.460938 -17.234375 L -0.988281 -17.234375 L -0.988281 -16.984375 C -0.988281 -16.277344 -0.925781 -15.628906 -0.832031 -15.011719 L 0.648438 -15.011719 C 0.679688 -14.765625 0.738281 -14.519531 0.800781 -14.273438 L -0.710938 -14.273438 C -0.492188 -13.378906 -0.183594 -12.609375 0.214844 -12.054688 C 0.679688 -11.4375 1.234375 -11.097656 1.851562 -10.882812 L 3.605469 -10.882812 C 4.253906 -10.667969 4.964844 -10.605469 5.640625 -10.605469 L 14.859375 -10.605469 C 15.320312 -10.605469 15.9375 -10.417969 15.9375 -8.910156 L 15.9375 -8.664062 L 10.019531 -8.664062 L 10.019531 -6.257812 C 10.019531 -5.734375 9.925781 -5.332031 9.773438 -5.023438 L 15.320312 -5.023438 C 15.320312 -4.992188 15.289062 -4.992188 15.289062 -4.964844 C 15.199219 -4.777344 15.011719 -4.5625 14.457031 -4.5625 L 1.292969 -4.5625 C 1.140625 -4.5625 0.863281 -4.53125 0.648438 -4.285156 L -0.738281 -4.285156 C -0.863281 -4.132812 -0.957031 -3.882812 -0.957031 -3.515625 L -0.957031 -1.324219 L 0.03125 -1.324219 L 0.03125 -1.046875 C 0.03125 -0.09375 0.648438 0 0.925781 0 L 13.839844 0 C 15.320312 0 16.460938 -0.429688 17.261719 -1.324219 Z M 17.261719 -1.324219 "/>
            </g>
        </g>
    </g>
</svg>